<?xml version="1.0" encoding="UTF-8"?>
<svg xmlns="http://www.w3.org/2000/svg" viewBox="0 0 800 600" width="800" height="600">
  <defs>
    <!-- Gradients -->
    <radialGradient id="verifiedGlow" cx="50%" cy="50%" r="50%">
      <stop offset="0%" stop-color="#f7b799" stop-opacity="0.7"/>
      <stop offset="100%" stop-color="#f7b799" stop-opacity="0"/>
    </radialGradient>
    
    <!-- Animation definitions -->
    <style type="text/css">
      /* Base Icon Styles */
      .icon {
        cursor: pointer;
        overflow: visible;
      }
      .icon * {
        transform-origin: center;
        transform-box: fill-box;
      }
      
      /* Icon Backgrounds */
      .icon-bg {
        fill: #ffffff;
        stroke: #386088;
        stroke-width: 2;
      }
      
      /* Smile Icon Animations */
      @keyframes teethToSmile {
        0% { d: path('M200 164 Q256 200, 312 164 L312 192 Q256 240, 200 192 Z'); }
        50% { d: path('M200 164 Q256 240, 312 164 L312 156 Q256 212, 200 156 Z'); }
        100% { d: path('M200 164 Q256 300, 312 164 L312 164 Q256 300, 200 164 Z'); }
      }
      
      @keyframes dividersFade {
        0% { opacity: 1; }
        50% { opacity: 0.5; }
        100% { opacity: 0; }
      }
      
      @keyframes smileAppear {
        0% { opacity: 0; }
        50% { opacity: 0.5; }
        100% { opacity: 1; }
      }
      
      /* Tooth Icon Animations */
      @keyframes toothPulse {
        0% { transform: scale(1); }
        50% { transform: scale(1.05); }
        100% { transform: scale(1); }
      }
      
      @keyframes toothGlow {
        0% { opacity: 0; }
        50% { opacity: 0.8; }
        100% { opacity: 0; }
      }
      
      /* Cost Icon Animations */
      @keyframes calculatorPulse {
        0% { transform: scale(1); }
        50% { transform: scale(1.03); }
        100% { transform: scale(1); }
      }
      
      @keyframes dollarGlow {
        0% { stroke: #386088; }
        50% { stroke: #f9a75f; }
        100% { stroke: #386088; }
      }
      
      @keyframes buttonPress {
        0%, 100% { transform: scale(1); opacity: 0.1; }
        20% { transform: scale(0.9); opacity: 0.3; }
        40% { transform: scale(1); opacity: 0.1; }
      }
      
      @keyframes coinAppear {
        0% { opacity: 0; transform: translate(0, 0) scale(0); }
        20% { opacity: 1; transform: translate(0, 0) scale(1); }
        100% { opacity: 0; transform: translate(0, -32px) scale(0.5); }
      }
      
      /* Finder Icon Animations */
      @keyframes handleSway {
        0% { transform: rotate(0deg); }
        25% { transform: rotate(5deg); }
        75% { transform: rotate(-5deg); }
        100% { transform: rotate(0deg); }
      }
      
      @keyframes glassPulse {
        0% { transform: scale(1); }
        50% { transform: scale(1.05); }
        100% { transform: scale(1); }
      }
      
      @keyframes pinBounce {
        0%, 100% { transform: translateY(0); }
        50% { transform: translateY(-4px); }
      }
      
      @keyframes scanRotate {
        from { 
          transform: rotate(0deg);
          stroke-dashoffset: 0;
        }
        to { 
          transform: rotate(360deg);
          stroke-dashoffset: -100; 
        }
      }
      
      /* Before-After Icon Animations */
      @keyframes sliderMove {
        0% { transform: translateX(0); }
        50% { transform: translateX(16px); }
        100% { transform: translateX(0); }
      }
      
      @keyframes handlePulse {
        0% { transform: scale(1); }
        50% { transform: scale(1.2); }
        100% { transform: scale(1); }
      }
      
      @keyframes textFade {
        0% { opacity: 1; }
        50% { opacity: 0.3; }
        100% { opacity: 1; }
      }
      
      /* Academy Icon Animations */
      @keyframes capFloat {
        0%, 100% { transform: translateY(0); }
        50% { transform: translateY(-4px); }
      }
      
      @keyframes bookOpen {
        0% { transform: rotateY(0deg); }
        50% { transform: rotateY(30deg); }
        100% { transform: rotateY(0deg); }
      }
      
      @keyframes tasselSway {
        0%, 100% { transform: rotate(-5deg); }
        50% { transform: rotate(5deg); }
      }
      
      @keyframes textFloat {
        0% { opacity: 0; transform: translateY(0) scale(0.5); }
        25% { opacity: 1; transform: translateY(-5px) scale(1); }
        75% { opacity: 1; transform: translateY(-10px) scale(1); }
        100% { opacity: 0; transform: translateY(-16px) scale(0.5); }
      }
      
      /* Appointment Icon Animations */
      @keyframes highlightPulse {
        0% { transform: scale(1); }
        50% { transform: scale(1.1); }
        100% { transform: scale(1); }
      }
      
      @keyframes calendarShake {
        0%, 100% { transform: rotate(0deg); }
        25% { transform: rotate(-1deg); }
        75% { transform: rotate(1deg); }
      }
      
      @keyframes hourHandRotate {
        0% { transform: rotate(0deg); }
        100% { transform: rotate(360deg); }
      }
      
      @keyframes minuteHandRotate {
        0% { transform: rotate(0deg); }
        100% { transform: rotate(360deg); }
      }
      
      @keyframes checkBounce {
        0%, 100% { transform: scale(1); }
        50% { transform: scale(1.2); }
      }
      
      /* Testimonial Icon Animations */
      @keyframes bubblePulse {
        0% { transform: scale(1); }
        50% { transform: scale(1.03); }
        100% { transform: scale(1); }
      }
      
      @keyframes starTwinkle {
        0%, 100% { transform: scale(1); opacity: 1; }
        50% { transform: scale(1.2); opacity: 0.8; }
      }
      
      @keyframes avatarBounce {
        0%, 100% { transform: translateY(0); }
        50% { transform: translateY(-4px); }
      }
      
      @keyframes eyeBlink {
        0%, 10%, 100% { transform: scaleY(1); }
        5% { transform: scaleY(0.1); }
      }
      
      @keyframes smileWiden {
        0%, 100% { transform: scaleX(1); }
        50% { transform: scaleX(1.2); }
      }
      
      /* Procedure Icon Animations */
      @keyframes progressFill {
        0% { stroke-dashoffset: 75; }
        100% { stroke-dashoffset: 0; }
      }
      
      @keyframes markerActivate {
        0%, 20% { fill: #ffffff; }
        25%, 100% { fill: #f29c74; }
      }
      
      @keyframes textActivate {
        0%, 20% { fill: #386088; }
        25%, 100% { fill: #ffffff; }
      }
      
      @keyframes implantMove {
        0%, 20% { transform: translateY(0); }
        25%, 75% { transform: translateY(-8px); }
        80%, 100% { transform: translateY(0); }
      }
      
      @keyframes crownFade {
        0%, 40% { opacity: 0.3; }
        50%, 100% { opacity: 1; }
      }
      
      @keyframes arrowPulse {
        0%, 15%, 85%, 100% { opacity: 0; }
        20%, 80% { opacity: 1; }
      }
      
      /* Verified Icon Animations */
      @keyframes shieldPulse {
        0%, 100% { transform: scale(1); }
        50% { transform: scale(1.05); }
      }
      
      @keyframes checkmarkDraw {
        0% { stroke-dashoffset: 64; }
        60%, 100% { stroke-dashoffset: 0; }
      }
      
      @keyframes checkmarkGlow {
        0%, 50% { stroke-width: 3; }
        75% { stroke-width: 4; }
        100% { stroke-width: 3; }
      }
      
      @keyframes glowPulse {
        0%, 40% { opacity: 0; }
        70% { opacity: 0.8; }
        100% { opacity: 0; }
      }
      
      @keyframes toothEmblemHighlight {
        0% { fill-opacity: 0.2; }
        50% { fill-opacity: 0.6; }
        100% { fill-opacity: 0.2; }
      }
      
      /* Notification Icon Animations */
      @keyframes bellShake {
        0%, 50%, 100% { transform: rotate(0deg); }
        55%, 65%, 75% { transform: rotate(15deg); }
        60%, 70%, 80% { transform: rotate(-15deg); }
      }
      
      @keyframes clapperBounce {
        0%, 50%, 100% { transform: translateY(0); }
        55%, 65%, 75% { transform: translateY(3px); }
        60%, 70%, 80% { transform: translateY(-3px); }
      }
      
      @keyframes dotPulse {
        0%, 40% { transform: scale(1); }
        45% { transform: scale(1.3); }
        50%, 100% { transform: scale(1); }
      }
      
      @keyframes waveFade {
        0%, 50% { opacity: 0; }
        60% { opacity: 1; }
        90%, 100% { opacity: 0; }
      }
      
      @keyframes waveMove {
        50% { transform: translateX(0); }
        100% { transform: translateX(10px); }
      }
      
      /* Mobile Icon Animations */
      @keyframes desktopPulse {
        0%, 100% { transform: scale(1); }
        50% { transform: scale(1.03); }
      }
      
      @keyframes smartphonePulse {
        0%, 100% { transform: scale(1) translateY(0); }
        50% { transform: scale(1.1) translateY(-3px); }
      }
      
      @keyframes arrowFlow {
        0% { opacity: 0; transform: scaleY(0.5); }
        50% { opacity: 1; transform: scaleY(1); }
        100% { opacity: 0; transform: scaleY(0.5); }
      }
      
      @keyframes layoutFade {
        0%, 100% { opacity: 0.2; }
        50% { opacity: 0.6; }
      }
      
      @keyframes responsiveLabelPulse {
        0%, 100% { opacity: 1; transform: scale(1); }
        50% { opacity: 0.7; transform: scale(1.1); }
      }
      
      /* Hover Effects for Icons */
      .smile-icon:hover .teeth { animation: teethToSmile 0.6s forwards; }
      .smile-icon:hover .dividers { animation: dividersFade 0.6s forwards; }
      .smile-icon:hover .smile { animation: smileAppear 0.6s forwards; }
      
      .tooth-icon:hover .tooth { animation: toothPulse 1.2s infinite; }
      .tooth-icon:hover .glow { animation: toothGlow 1.2s infinite; }
      .tooth-icon:hover .root { animation: toothPulse 1.2s infinite 0.1s; }
      
      .cost-icon:hover .calculator { animation: calculatorPulse 1.5s infinite; }
      .cost-icon:hover .dollar { animation: dollarGlow 1.5s infinite; }
      .cost-icon:hover .button-1 { animation: buttonPress 1.5s infinite 0.1s; }
      .cost-icon:hover .button-2 { animation: buttonPress 1.5s infinite 0.3s; }
      .cost-icon:hover .button-3 { animation: buttonPress 1.5s infinite 0.5s; }
      .cost-icon:hover .coin-1, .cost-icon:hover .coin-dollar-1 { animation: coinAppear 1.5s infinite 0.3s; }
      .cost-icon:hover .coin-2, .cost-icon:hover .coin-dollar-2 { animation: coinAppear 1.5s infinite 0.6s; }
      .cost-icon:hover .coin-3, .cost-icon:hover .coin-dollar-3 { animation: coinAppear 1.5s infinite 0.9s; }
      
      .finder-icon:hover .handle { animation: handleSway 1.5s infinite; transform-origin: 384px 384px; }
      .finder-icon:hover .scan { animation: scanRotate 3s linear infinite; }
      .finder-icon:hover .glass { animation: glassPulse 1.5s infinite; }
      .finder-icon:hover .pin { animation: pinBounce 0.8s infinite; }
      .finder-icon:hover .pin-dot { animation: pinBounce 0.8s infinite; }
      
      .before-after-icon:hover .slider-line { animation: sliderMove 2s infinite; }
      .before-after-icon:hover .slider-handle { animation: handlePulse 2s infinite, sliderMove 2s infinite; }
      .before-after-icon:hover .before-text { animation: textFade 2s infinite; }
      .before-after-icon:hover .after-text { animation: textFade 2s infinite reverse; }
      
      .academy-icon:hover .cap { animation: capFloat 2s infinite ease-in-out; }
      .academy-icon:hover .tassel { animation: tasselSway 2s infinite ease-in-out, capFloat 2s infinite ease-in-out; transform-origin: 256px 51.2px; }
      .academy-icon:hover .book-pages { animation: bookOpen 3s infinite ease-in-out; transform-origin: 256px 256px; }
      .academy-icon:hover .text-1 { animation: textFloat 3s infinite 0s; }
      .academy-icon:hover .text-2 { animation: textFloat 3s infinite 0.5s; }
      .academy-icon:hover .text-3 { animation: textFloat 3s infinite 1s; }
      
      .appointment-icon:hover .highlight-date { animation: highlightPulse 1.5s infinite; }
      .appointment-icon:hover .calendar { animation: calendarShake 3s infinite; transform-origin: 256px 256px; }
      .appointment-icon:hover .hour-hand { animation: hourHandRotate 6s linear infinite; transform-origin: 128px 341.33px; }
      .appointment-icon:hover .minute-hand { animation: minuteHandRotate 1s linear infinite; transform-origin: 128px 341.33px; }
      .appointment-icon:hover .check-mark { animation: checkBounce 1.5s infinite; }
      
      .testimonial-icon:hover .bubble { animation: bubblePulse 3s infinite; }
      .testimonial-icon:hover .star-1 { animation: starTwinkle 1.5s infinite 0s; }
      .testimonial-icon:hover .star-2 { animation: starTwinkle 1.5s infinite 0.3s; }
      .testimonial-icon:hover .star-3 { animation: starTwinkle 1.5s infinite 0.6s; }
      .testimonial-icon:hover .star-4 { animation: starTwinkle 1.5s infinite 0.9s; }
      .testimonial-icon:hover .star-5 { animation: starTwinkle 1.5s infinite 1.2s; }
      .testimonial-icon:hover .avatar { animation: avatarBounce 2s infinite; }
      .testimonial-icon:hover .eye { animation: eyeBlink 3s infinite; }
      .testimonial-icon:hover .smiley { animation: smileWiden 2s infinite; transform-origin: 256px 384px; }
      
      .procedure-icon:hover .progress { animation: progressFill 4s linear forwards; }
      .procedure-icon:hover .marker-2 { animation: markerActivate 4s linear forwards 1s; }
      .procedure-icon:hover .marker-text-2 { animation: textActivate 4s linear forwards 1s; }
      .procedure-icon:hover .marker-3 { animation: markerActivate 4s linear forwards 2s; }
      .procedure-icon:hover .marker-text-3 { animation: textActivate 4s linear forwards 2s; }
      .procedure-icon:hover .marker-4 { animation: markerActivate 4s linear forwards 3s; }
      .procedure-icon:hover .marker-text-4 { animation: textActivate 4s linear forwards 3s; }
      .procedure-icon:hover .marker-5 { animation: markerActivate 4s linear forwards 4s; }
      .procedure-icon:hover .marker-text-5 { animation: textActivate 4s linear forwards 4s; }
      .procedure-icon:hover .implant-layer { animation: implantMove 4s infinite 1s; }
      .procedure-icon:hover .crown { animation: crownFade 4s infinite 1s; }
      .procedure-icon:hover .arrow { animation: arrowPulse 4s infinite 1s; }
      
      .verified-icon:hover .shield { animation: shieldPulse 2s infinite; }
      .verified-icon:hover .shield-inner { animation: shieldPulse 2s infinite; }
      .verified-icon:hover .checkmark { animation: checkmarkDraw 2s forwards, checkmarkGlow 2s infinite 2s; }
      .verified-icon:hover .glow-effect { animation: glowPulse 2s infinite 2s; }
      .verified-icon:hover .tooth-emblem { animation: toothEmblemHighlight 2s infinite 2s; }
      
      .notification-icon:hover .bell { animation: bellShake 4s infinite; transform-origin: 256px 51.2px; }
      .notification-icon:hover .clapper { animation: clapperBounce 4s infinite; }
      .notification-icon:hover .notification-dot { animation: dotPulse 4s infinite; }
      .notification-icon:hover .wave-1 { animation: waveFade 4s infinite, waveMove 4s infinite; transform-origin: 384px 256px; }
      .notification-icon:hover .wave-2 { animation: waveFade 4s infinite 0.2s, waveMove 4s infinite 0.2s; transform-origin: 384px 256px; }
      .notification-icon:hover .wave-3 { animation: waveFade 4s infinite 0.4s, waveMove 4s infinite 0.4s; transform-origin: 384px 256px; }
      
      .mobile-icon:hover .desktop-screen { animation: desktopPulse 3s infinite; }
      .mobile-icon:hover .smartphone-screen { animation: smartphonePulse 3s infinite; }
      .mobile-icon:hover .connect-arrow { animation: arrowFlow 3s infinite; }
      .mobile-icon:hover .desktop-layout rect { animation: layoutFade 3s infinite; }
      .mobile-icon:hover .mobile-layout rect { animation: layoutFade 3s infinite 0.5s; }
      .mobile-icon:hover .responsive-label { animation: responsiveLabelPulse 3s infinite; }
    </style>
  </defs>
  
  <!-- Main container -->
  <g id="icon-set">
    <!-- 1. Smile Icon -->
    <g transform="translate(50, 50)" class="icon smile-icon">
      <circle cx="32" cy="32" r="30" class="icon-bg"/>
      <path d="M16 29.09 Q32 35.56, 48 29.09 L48 38.4 Q32 42.67, 16 38.4 Z" class="teeth" fill="#ffffff" stroke="#386088" stroke-width="2"/>
      <g class="dividers">
        <line x1="24" y1="29.09" x2="24" y2="38.4" stroke="#386088" stroke-width="1"/>
        <line x1="32" y1="29.09" x2="32" y2="38.4" stroke="#386088" stroke-width="1"/>
        <line x1="40" y1="29.09" x2="40" y2="38.4" stroke="#386088" stroke-width="1"/>
      </g>
      <path d="M16 32 Q32 53.33, 48 32" class="smile" stroke="#386088" stroke-width="2" stroke-linecap="round" fill="none" opacity="0"/>
    </g>
    
    <!-- 2. Tooth Icon -->
    <g transform="translate(150, 50)" class="icon tooth-icon">
      <path d="M32 8 C42.67 8 48 10.67 48 16 C48 21.33 56 32 48 42.67 C42.67 56 42.67 56 32 56 C21.33 56 21.33 56 16 42.67 C8 32 16 21.33 16 16 C16 10.67 21.33 8 32 8Z" class="glow" fill="none" stroke="#f7b799" stroke-width="4" opacity="0" filter="url(#blur)"/>
      <path d="M32 8 C42.67 8 48 10.67 48 16 C48 21.33 56 32 48 42.67 C42.67 56 42.67 56 32 56 C21.33 56 21.33 56 16 42.67 C8 32 16 21.33 16 16 C16 10.67 21.33 8 32 8Z" class="tooth" fill="#ffffff" stroke="#386088" stroke-width="2"/>
      <path d="M21.33 56 C21.33 56 16 56 16 64 L24 64 C24 56 21.33 56 21.33 56" class="root" fill="#ffffff" stroke="#386088" stroke-width="2"/>
      <path d="M42.67 56 C42.67 56 40 56 40 64 L48 64 C48 56 42.67 56 42.67 56" class="root" fill="#ffffff" stroke="#386088" stroke-width="2"/>
    </g>
    
    <!-- 3. Cost Icon -->
    <g transform="translate(250, 50)" class="icon cost-icon">
      <rect x="8" y="8" width="48" height="48" rx="4" class="calculator icon-bg"/>
      <rect x="10.67" y="10.67" width="42.67" height="10.67" rx="2" fill="#4a7ba8" opacity="0.2"/>
      <g class="calculator-buttons">
        <rect x="10.67" y="26.67" width="8" height="8" rx="2" class="button-1" fill="#2a4b6a" opacity="0.1"/>
        <rect x="26.67" y="26.67" width="8" height="8" rx="2" fill="#2a4b6a" opacity="0.1"/>
        <rect x="42.67" y="26.67" width="8" height="8" rx="2" fill="#2a4b6a" opacity="0.1"/>
        <rect x="10.67" y="37.33" width="8" height="8" rx="2" fill="#2a4b6a" opacity="0.1"/>
        <rect x="26.67" y="37.33" width="8" height="8" rx="2" class="button-2" fill="#2a4b6a" opacity="0.1"/>
        <rect x="42.67" y="37.33" width="8" height="8" rx="2" fill="#2a4b6a" opacity="0.1"/>
        <rect x="10.67" y="48" width="8" height="8" rx="2" fill="#2a4b6a" opacity="0.1"/>
        <rect x="26.67" y="48" width="8" height="8" rx="2" fill="#2a4b6a" opacity="0.1"/>
        <rect x="42.67" y="48" width="8" height="8" rx="2" class="button-3" fill="#2a4b6a" opacity="0.1"/>
      </g>
      <path d="M32 16 V48 M24 21.33 H40 A8 8 0 0 1 24 32 H40 A8 8 0 0 1 24 42.67" class="dollar" stroke="#386088" stroke-width="2.5" stroke-linecap="round" fill="none"/>
      <g class="coins">
        <circle cx="32" cy="32" r="5.33" class="coin-1" fill="#f9a75f" opacity="0"/>
        <path d="M32 26.67 V37.33 M29.33 29.33 H34.67 A2.67 2.67 0 0 1 29.33 32 H34.67 A2.67 2.67 0 0 1 29.33 34.67" class="coin-dollar-1" stroke="#ffffff" stroke-width="1.5" stroke-linecap="round" fill="none" opacity="0"/>
        <circle cx="32" cy="32" r="5.33" class="coin-2" fill="#f9a75f" opacity="0"/>
        <path d="M32 26.67 V37.33 M29.33 29.33 H34.67 A2.67 2.67 0 0 1 29.33 32 H34.67 A2.67 2.67 0 0 1 29.33 34.67" class="coin-dollar-2" stroke="#ffffff" stroke-width="1.5" stroke-linecap="round" fill="none" opacity="0"/>
        <circle cx="32" cy="32" r="5.33" class="coin-3" fill="#f9a75f" opacity="0"/>
        <path d="M32 26.67 V37.33 M29.33 29.33 H34.67 A2.67 2.67 0 0 1 29.33 32 H34.67 A2.67 2.67 0 0 1 29.33 34.67" class="coin-dollar-3" stroke="#ffffff" stroke-width="1.5" stroke-linecap="round" fill="none" opacity="0"/>
      </g>
    </g>
    
    <!-- 4. Finder Icon -->
    <g transform="translate(350, 50)" class="icon finder-icon">
      <circle cx="26" cy="26" r="16" class="scan" fill="none" stroke="#f7b799" stroke-width="2" stroke-dasharray="100" opacity="0.7"/>
      <line x1="38.4" y1="38.4" x2="51.2" y2="51.2" class="handle" stroke="#386088" stroke-width="3" stroke-linecap="round"/>
      <circle cx="26" cy="26" r="16" class="glass" fill="none" stroke="#386088" stroke-width="2"/>
      <path d="M26 16 A4 4 0 0 1 30 20 C30 24 32 26 26 28 C20 26 22 24 22 20 A4 4 0 0 1 26 16Z" class="pin" fill="#f29c74" stroke="#ffffff" stroke-width="1"/>
      <circle cx="26" cy="20" r="1.33" class="pin-dot" fill="#ffffff"/>
    </g>
    
    <!-- 5. Before-After Icon -->
    <g transform="translate(450, 50)" class="icon before-after-icon">
      <rect x="8" y="8" width="48" height="48" rx="4" class="icon-bg"/>
      <path d="M16 26 Q32 24, 24 40 L24 46 Q32 40, 16 46 Z" fill="#ffffff" stroke="#386088" stroke-width="1"/>
      <path d="M48 26 Q40 24, 48 40 L48 46 Q40 46, 40 46 Z" fill="#ffffff" stroke="#386088" stroke-width="1"/>
      <line x1="32" y1="8" x2="32" y2="56" class="slider-line" stroke="#386088" stroke-width="2"/>
      <g class="slider-handle">
        <circle cx="32" cy="32" r="5.33" fill="#f29c74" stroke="#ffffff" stroke-width="1"/>
        <path d="M30 32 L28 30 L28 34Z" fill="#ffffff"/>
        <path d="M34 32 L36 30 L36 34Z" fill="#ffffff"/>
      </g>
      <text x="16" y="32" font-size="6.4" font-family="Arial, sans-serif" text-anchor="middle" fill="#386088" class="before-text">Before</text>
      <text x="48" y="32" font-size="6.4" font-family="Arial, sans-serif" text-anchor="middle" fill="#386088" class="after-text">After</text>
    </g>
    
    <!-- 6. Academy Icon -->
    <g transform="translate(50, 150)" class="icon academy-icon">
      <rect x="10.67" y="21.33" width="42.67" height="32" rx="2" class="icon-bg"/>
      <path d="M32 21.33 V56 C28 54, 21.33 54, 10.67 56 V21.33 C21.33 22.67, 28 22.67, 32 21.33" fill="#4a7ba8" opacity="0.3"/>
      <path d="M32 22.67 C36 21.33, 42.67 21.33, 53.33 22.67 V54.67 C42.67 53.33, 36 53.33, 32 54.67 Z" class="book-pages" fill="#ffffff" stroke="#386088" stroke-width="1"/>
      <g class="teeth-diagram">
        <path d="M21.33 25 Q32 23, 42.67 25 V32 Q32 34, 21.33 32 Z" fill="#ffffff" stroke="#386088" stroke-width="1"/>
        <line x1="28.44" y1="25" x2="28.44" y2="32" stroke="#386088" stroke-width="0.5"/>
        <line x1="35.56" y1="25" x2="35.56" y2="32" stroke="#386088" stroke-width="0.5"/>
      </g>
      <g class="floating-text">
        <text x="21.33" y="35" font-size="5.33" font-family="Arial, sans-serif" text-anchor="middle" fill="#f29c74" opacity="0" class="text-1">A+</text>
        <text x="32" y="35" font-size="5.33" font-family="Arial, sans-serif" text-anchor="middle" fill="#f29c74" opacity="0" class="text-2">123</text>
        <text x="42.67" y="35" font-size="5.33" font-family="Arial, sans-serif" text-anchor="middle" fill="#f29c74" opacity="0" class="text-3">XYZ</text>
      </g>
      <path d="M16 16 L32 8 L48 16 L32 24 Z" class="cap" fill="#386088"/>
      <path d="M32 8 V2.67 M32 24 V21.33" class="tassel" stroke="#386088" stroke-width="1.5" stroke-linecap="round"/>
    </g>
    
    <!-- 7. Appointment Icon -->
    <g transform="translate(150, 150)" class="icon appointment-icon">
      <rect x="21.33" y="10.67" width="5.33" height="10.67" rx="2.67" fill="#386088"/>
      <rect x="37.33" y="10.67" width="5.33" height="10.67" rx="2.67" fill="#386088"/>
      <rect x="10.67" y="16" width="42.67" height="40" rx="4" class="calendar" fill="#ffffff" stroke="#386088" stroke-width="2"/>
      <rect x="10.67" y="16" width="42.67" height="8" rx="4" fill="#4a7ba8" opacity="0.3"/>
      <g class="grid-lines">
        <line x1="10.67" y1="32" x2="53.33" y2="32" stroke="#386088" stroke-width="1" stroke-opacity="0.3"/>
        <line x1="10.67" y1="42.67" x2="53.33" y2="42.67" stroke="#386088" stroke-width="1" stroke-opacity="0.3"/>
        <line x1="25.33" y1="24" x2="25.33" y2="56" stroke="#386088" stroke-width="1" stroke-opacity="0.3"/>
        <line x1="39.11" y1="24" x2="39.11" y2="56" stroke="#386088" stroke-width="1" stroke-opacity="0.3"/>
      </g>
      <rect x="26.67" y="32" width="10.67" height="10.67" rx="2" class="highlight-date" fill="#f29c74"/>
      <text x="32" y="38.67" font-size="6.4" font-family="Arial, sans-serif" font-weight="bold" text-anchor="middle" fill="#ffffff">15</text>
      <circle cx="16" cy="42.67" r="5.33" fill="#ffffff" stroke="#386088" stroke-width="1"/>
      <line x1="16" y1="42.67" x2="16" y2="39.33" class="hour-hand" stroke="#386088" stroke-width="2" stroke-linecap="round"/>
      <line x1="16" y1="42.67" x2="21.33" y2="42.67" class="minute-hand" stroke="#386088" stroke-width="1" stroke-linecap="round"/>
      <path d="M44 42.67 L48 46.67 L54 38.67" class="check-mark" stroke="#f29c74" stroke-width="2" stroke-linecap="round" stroke-linejoin="round" fill="none"/>
    </g>
    
    <!-- 8. Testimonial Icon -->
    <g transform="translate(250, 150)" class="icon testimonial-icon">
      <path d="M8 16 H56 C58 16, 58 18, 56 20 V40 C56 42, 54 44, 52 44 H33 L32 56 L31 44 H12 C10 44, 8 42, 8 40 V20 C8 18, 10 16, 12 16 Z" class="bubble" fill="#ffffff" stroke="#386088" stroke-width="2"/>
      <g class="text-lines">
        <line x1="16" y1="24" x2="48" y2="24" stroke="#386088" stroke-width="1" stroke-opacity="0.3"/>
        <line x1="16" y1="32" x2="48" y2="32" stroke="#386088" stroke-width="1" stroke-opacity="0.3"/>
        <line x1="16" y1="40" x2="48" y2="40" stroke="#386088" stroke-width="1" stroke-opacity="0.3"/>
      </g>
      <g class="stars">
        <path d="M16 36 L18 30 L12 30 L17 27 L15 21 L20 24 L25 21 L23 27 L28 30 L22 30 Z" class="star-1" fill="#f9a75f" stroke="#f9a75f" stroke-width="1"/>
        <path d="M24 36 L26 30 L20 30 L25 27 L23 21 L28 24 L33 21 L31 27 L36 30 L30 30 Z" class="star-2" fill="#f9a75f" stroke="#f9a75f" stroke-width="1"/>
        <path d="M32 36 L34 30 L28 30 L33 27 L31 21 L36 24 L41 21 L39 27 L44 30 L38 30 Z" class="star-3" fill="#f9a75f" stroke="#f9a75f" stroke-width="1"/>
        <path d="M40 36 L42 30 L36 30 L41 27 L39 21 L44 24 L49 21 L47 27 L52 30 L46 30 Z" class="star-4" fill="#f9a75f" stroke="#f9a75f" stroke-width="1"/>
        <path d="M48 36 L50 30 L44 30 L49 27 L47 21 L52 24 L57 21 L55 27 L60 30 L54 30 Z" class="star-5" fill="#f9a75f" stroke="#f9a75f" stroke-width="1"/>
      </g>
      <circle cx="32" cy="48" r="5.33" class="avatar" fill="#f7b799"/>
      <circle cx="30" cy="46" r="0.67" class="eye" fill="#ffffff"/>
      <circle cx="34" cy="46" r="0.67" class="eye" fill="#ffffff"/>
      <path d="M30 49 Q32 52, 34 49" class="smiley" stroke="#ffffff" stroke-width="1" fill="none"/>
    </g>
    
    <!-- 9. Procedure Icon -->
    <g transform="translate(350, 150)" class="icon procedure-icon">
      <circle cx="32" cy="32" r="24" fill="none" stroke="#4a7ba8" stroke-width="2" stroke-opacity="0.3"/>
      <path d="M32 32 m0 -24 a 24 24 0 1 1 0 48 a 24 24 0 1 1 0 -48" class="progress" fill="none" stroke="#386088" stroke-width="2" stroke-dasharray="75" stroke-dashoffset="75"/>
      <g class="step-markers">
        <circle cx="32" cy="8" r="4" class="marker-1" fill="#f29c74" stroke="#386088" stroke-width="1"/>
        <text x="32" y="9" font-size="5.33" font-weight="bold" font-family="Arial, sans-serif" text-anchor="middle" class="marker-text-1" fill="#ffffff">1</text>
        <circle cx="51.31" cy="18.63" r="4" class="marker-2" fill="#ffffff" stroke="#386088" stroke-width="1"/>
        <text x="51.31" y="19.63" font-size="5.33" font-weight="bold" font-family="Arial, sans-serif" text-anchor="middle" class="marker-text-2" fill="#386088">2</text>
        <circle cx="45.25" cy="45.25" r="4" class="marker-3" fill="#ffffff" stroke="#386088" stroke-width="1"/>
        <text x="45.25" y="46.25" font-size="5.33" font-weight="bold" font-family="Arial, sans-serif" text-anchor="middle" class="marker-text-3" fill="#386088">3</text>
        <circle cx="18.63" cy="45.25" r="4" class="marker-4" fill="#ffffff" stroke="#386088" stroke-width="1"/>
        <text x="18.63" y="46.25" font-size="5.33" font-weight="bold" font-family="Arial, sans-serif" text-anchor="middle" class="marker-text-4" fill="#386088">4</text>
        <circle cx="12.69" cy="18.63" r="4" class="marker-5" fill="#ffffff" stroke="#386088" stroke-width="1"/>
        <text x="12.69" y="19.63" font-size="5.33" font-weight="bold" font-family="Arial, sans-serif" text-anchor="middle" class="marker-text-5" fill="#386088">5</text>
      </g>
      <g class="implant-layer">
        <rect x="24" y="40" width="16" height="8" rx="2" fill="#ffffff" stroke="#386088" stroke-width="1" stroke-opacity="0.6"/>
        <path d="M32 40 V48 M28 44 H36" stroke="#386088" stroke-width="2" fill="none"/>
        <path d="M28 32 Q32 24, 36 32 V36 Q32 40, 28 36 Z" class="crown" fill="#ffffff" stroke="#386088" stroke-width="1" opacity="0.7"/>
      </g>
      <path d="M32 21.33 V26.67 M28 24 L32 26.67 L36 24" class="arrow" stroke="#f29c74" stroke-width="2" stroke-linecap="round" fill="none" opacity="0"/>
    </g>
    
    <!-- 10. Verified Icon -->
    <g transform="translate(450, 150)" class="icon verified-icon">
      <circle cx="32" cy="32" r="16" class="glow-effect" fill="url(#verifiedGlow)" opacity="0"/>
      <path d="M32 5.33 L53.33 10.67 V32 C53.33 48, 32 58.67, 10.67 32 V10.67 Z" class="shield" fill="#ffffff" stroke="#386088" stroke-width="2"/>
      <path d="M32 8 L48 16 V32 C48 42.67, 32 53.33, 16 32 V16 Z" class="shield-inner" fill="none" stroke="#386088" stroke-width="1" stroke-opacity="0.5"/>
      <path d="M32 21.33 Q36 21.33, 36 26.67 Q36 32, 32 32 Q28 32, 28 26.67 Q28 21.33, 32 21.33" class="tooth-emblem" fill="#4a7ba8" fill-opacity="0.2" stroke="#386088" stroke-width="1" stroke-opacity="0.7"/>
      <path d="M21.33 32 L28 40 L42.67 24" class="checkmark" fill="none" stroke="#f29c74" stroke-width="3" stroke-linecap="round" stroke-linejoin="round" stroke-dasharray="64" stroke-dashoffset="64"/>
    </g>
    
    <!-- 11. Notification Icon -->
    <g transform="translate(50, 250)" class="icon notification-icon">
      <path d="M32 10.67 Q42.67 10.67, 42.67 21.33 V42.67 L48 48 H16 L21.33 42.67 V21.33 Q21.33 10.67, 32 10.67" class="bell" fill="#ffffff" stroke="#386088" stroke-width="2"/>
      <path d="M32 10.67 V16 M32 44 V53.33 Q32 56, 37.33 56 Q32 56, 26.67 56" class="clapper" fill="none" stroke="#386088" stroke-width="2" stroke-linecap="round"/>
      <circle cx="42.67" cy="21.33" r="5.33" class="notification-dot" fill="#f29c74"/>
      <g class="sound-waves">
        <path d="M48 32 Q52 32, 52 28 Q52 24, 48 24" class="wave-1" fill="none" stroke="#386088" stroke-width="1" stroke-opacity="0.7" stroke-dasharray="3,3" opacity="0"/>
        <path d="M48 32 Q56 32, 56 24 Q56 16, 48 16" class="wave-2" fill="none" stroke="#386088" stroke-width="1" stroke-opacity="0.7" stroke-dasharray="3,3" opacity="0"/>
        <path d="M48 32 Q60 32, 60 20 Q60 8, 48 8" class="wave-3" fill="none" stroke="#386088" stroke-width="1" stroke-opacity="0.7" stroke-dasharray="3,3" opacity="0"/>
      </g>
    </g>
    
    <!-- 12. Mobile Icon -->
    <g transform="translate(150, 250)" class="icon mobile-icon">
      <rect x="10.67" y="10.67" width="48" height="32" rx="2" class="desktop-screen" fill="#4a7ba8" opacity="0.1"/>
      <rect x="26.67" y="30" width="10.67" height="21.33" rx="2" class="smartphone-screen" fill="#4a7ba8" opacity="0.1"/>
      <rect x="8" y="8" width="48" height="32" rx="2" fill="#ffffff" stroke="#386088" stroke-width="2"/>
      <path d="M24 40 H40 V48 H24 Z" fill="#386088" opacity="0.3"/>
      <rect x="26.67" y="24" width="10.67" height="24" rx="2" fill="#ffffff" stroke="#386088" stroke-width="1.5"/>
      <g class="desktop-layout">
        <rect x="10.67" y="10.67" width="42.67" height="4" rx="1" fill="#386088" opacity="0.2"/>
        <rect x="10.67" y="16" width="20" height="10.67" rx="1" fill="#f29c74" opacity="0.2"/>
        <rect x="32" y="16" width="20" height="10.67" rx="1" fill="#386088" opacity="0.2"/>
        <rect x="10.67" y="28" width="42.67" height="4" rx="1" fill="#386088" opacity="0.2"/>
      </g>
      <g class="mobile-layout">
        <rect x="28" y="26" width="8" height="2" rx="0.5" fill="#386088" opacity="0.2"/>
        <rect x="28" y="30" width="8" height="5.33" rx="0.5" fill="#f29c74" opacity="0.2"/>
        <rect x="28" y="37.33" width="8" height="5.33" rx="0.5" fill="#386088" opacity="0.2"/>
        <rect x="28" y="44" width="8" height="2" rx="0.5" fill="#386088" opacity="0.2"/>
      </g>
      <path d="M32 21.33 L32 24 M30 23 L32 21.33 L34 23" class="connect-arrow" stroke="#f29c74" stroke-width="1.5" stroke-linecap="round" fill="none"/>
      <text x="32" y="56" font-size="5.33" font-family="Arial, sans-serif" text-anchor="middle" fill="#386088" class="responsive-label">Responsive</text>
    </g>
    
    <!-- Icon Labels -->
    <g id="icon-labels" font-family="Arial, sans-serif" font-size="12" text-anchor="middle" fill="#2a4b6a">
      <text x="82" y="104">Smile</text>
      <text x="182" y="104">Tooth</text>
      <text x="282" y="104">Cost</text>
      <text x="382" y="104">Finder</text>
      <text x="482" y="104">Before/After</text>
      <text x="82" y="204">Academy</text>
      <text x="182" y="204">Appointment</text>
      <text x="282" y="204">Testimonial</text>
      <text x="382" y="204">Procedure</text>
      <text x="482" y="204">Verified</text>
      <text x="82" y="304">Notification</text>
      <text x="182" y="304">Mobile</text>
    </g>
    
    <!-- Title -->
    <g id="title">
      <rect x="200" y="350" width="400" height="60" rx="10" fill="#386088"/>
      <text x="400" y="390" font-family="Arial, sans-serif" font-size="24" text-anchor="middle" fill="#ffffff">New Smile Icons Collection</text>
    </g>
    
    <!-- Instructions -->
    <g id="instructions">
      <text x="400" y="430" font-family="Arial, sans-serif" font-size="16" text-anchor="middle" fill="#386088">Hover over icons to see animations</text>
      <text x="400" y="460" font-family="Arial, sans-serif" font-size="14" text-anchor="middle" fill="#386088">Designed for dental website UI with smooth animations</text>
      <text x="400" y="490" font-family="Arial, sans-serif" font-size="14" text-anchor="middle" fill="#386088">⭐ Award-winning interactive icon set ⭐</text>
    </g>
    
    <!-- Copyright -->
    <g id="copyright">
      <text x="400" y="550" font-family="Arial, sans-serif" font-size="12" text-anchor="middle" fill="#2a4b6a">© 2025 New Smile Guide • All Rights Reserved</text>
    </g>
  </g>
</svg>
